<svg width="104" height="222" viewBox="0 0 104 222" fill="none" xmlns="http://www.w3.org/2000/svg">
<line x1="1.5" y1="3" x2="1.5" y2="222" stroke="black" stroke-width="3"/>
<line y1="2.5" x2="71" y2="2.5" stroke="black" stroke-width="3"/>
<line x1="70.0073" y1="1.88852" x2="102.007" y2="30.8885" stroke="black" stroke-width="3"/>
<line x1="101.976" y1="90.0046" x2="101.976" y2="29.9962" stroke="black" stroke-width="3"/>
<line x1="102.113" y1="88.9758" x2="87.013" y2="104.141" stroke="black" stroke-width="3"/>
<line x1="101.939" y1="117.061" x2="88.9393" y2="104.061" stroke="black" stroke-width="3"/>
<line x1="101.5" y1="115.98" x2="102.5" y2="190.98" stroke="black" stroke-width="3"/>
<line y1="220.5" x2="75" y2="220.5" stroke="black" stroke-width="3"/>
<line x1="73.492" y1="220.566" x2="102.919" y2="189.96" stroke="black" stroke-width="3"/>
<line x1="31.5" y1="32" x2="31.5" y2="90" stroke="black" stroke-width="3"/>
<line x1="30" y1="30.5" x2="60" y2="30.5" stroke="black" stroke-width="3"/>
<line x1="59.0966" y1="29.9765" x2="73.0966" y2="44.9765" stroke="black" stroke-width="3"/>
<line x1="72.5" y1="44" x2="72.5" y2="78" stroke="black" stroke-width="3"/>
<line x1="30" y1="88.5" x2="65" y2="88.5" stroke="black" stroke-width="3"/>
<line x1="63.9792" y1="88.511" x2="72.8132" y2="77.0826" stroke="black" stroke-width="3"/>
<line x1="31.5" y1="120" x2="31.5" y2="191" stroke="black" stroke-width="3"/>
<line x1="30" y1="119.5" x2="60" y2="119.5" stroke="black" stroke-width="3"/>
<line x1="30" y1="189.5" x2="60" y2="189.5" stroke="black" stroke-width="3"/>
<line x1="59.0311" y1="189.855" x2="72.0311" y2="178.855" stroke="black" stroke-width="3"/>
<line x1="71.978" y1="180.006" x2="71.978" y2="132.995" stroke="black" stroke-width="3"/>
<line x1="59.4382" y1="118.79" x2="72.1521" y2="134.039" stroke="black" stroke-width="3"/>
</svg>
